<mxfile host="app.diagrams.net" modified="2024-06-25T11:50:47.336Z" agent="Mozilla/5.0 (Windows NT 10.0; Win64; x64) AppleWebKit/537.36 (KHTML, like Gecko) Chrome/126.0.0.0 Safari/537.36" etag="WvjkTbJO5pLqaiZ_AWxF" version="24.6.2" type="github">
  <diagram name="Page-1" id="2Sh7Y0kpU_2qWHHp-PGT">
    <mxGraphModel dx="2074" dy="1132" grid="1" gridSize="10" guides="1" tooltips="1" connect="1" arrows="1" fold="1" page="1" pageScale="1" pageWidth="827" pageHeight="1169" math="0" shadow="0">
      <root>
        <mxCell id="0" />
        <mxCell id="1" parent="0" />
        <mxCell id="Di8oiH6wZLfyAMjHp_Sa-1" value="" style="rounded=0;whiteSpace=wrap;html=1;" vertex="1" parent="1">
          <mxGeometry x="270" y="285" width="910" height="600" as="geometry" />
        </mxCell>
        <mxCell id="Di8oiH6wZLfyAMjHp_Sa-2" value="" style="rounded=0;whiteSpace=wrap;html=1;" vertex="1" parent="1">
          <mxGeometry x="790" y="285" width="390" height="600" as="geometry" />
        </mxCell>
        <mxCell id="Di8oiH6wZLfyAMjHp_Sa-3" value="Text" style="text;html=1;align=center;verticalAlign=middle;whiteSpace=wrap;rounded=0;" vertex="1" parent="1">
          <mxGeometry x="820" y="335" width="60" height="30" as="geometry" />
        </mxCell>
        <mxCell id="Di8oiH6wZLfyAMjHp_Sa-4" value="" style="rounded=0;whiteSpace=wrap;html=1;" vertex="1" parent="1">
          <mxGeometry x="880" y="340" width="120" height="20" as="geometry" />
        </mxCell>
        <mxCell id="Di8oiH6wZLfyAMjHp_Sa-5" value="Text" style="text;html=1;align=center;verticalAlign=middle;whiteSpace=wrap;rounded=0;" vertex="1" parent="1">
          <mxGeometry x="820" y="365" width="60" height="30" as="geometry" />
        </mxCell>
        <mxCell id="Di8oiH6wZLfyAMjHp_Sa-6" value="" style="rounded=0;whiteSpace=wrap;html=1;" vertex="1" parent="1">
          <mxGeometry x="880" y="370" width="120" height="20" as="geometry" />
        </mxCell>
        <mxCell id="Di8oiH6wZLfyAMjHp_Sa-7" value="Text" style="text;html=1;align=center;verticalAlign=middle;whiteSpace=wrap;rounded=0;" vertex="1" parent="1">
          <mxGeometry x="820" y="395" width="60" height="30" as="geometry" />
        </mxCell>
        <mxCell id="Di8oiH6wZLfyAMjHp_Sa-8" value="" style="rounded=0;whiteSpace=wrap;html=1;" vertex="1" parent="1">
          <mxGeometry x="880" y="400" width="120" height="20" as="geometry" />
        </mxCell>
      </root>
    </mxGraphModel>
  </diagram>
</mxfile>
